<svg width="13" height="12" viewBox="0 0 13 12" fill="none" xmlns="http://www.w3.org/2000/svg">
<path d="M0 0.75C0 0.551088 0.0642017 0.360322 0.178482 0.21967C0.292762 0.0790175 0.447759 0 0.609375 0H12.3906C12.5522 0 12.7072 0.0790175 12.8215 0.21967C12.9358 0.360322 13 0.551088 13 0.75C13 0.948912 12.9358 1.13968 12.8215 1.28033C12.7072 1.42098 12.5522 1.5 12.3906 1.5H0.609375C0.447759 1.5 0.292762 1.42098 0.178482 1.28033C0.0642017 1.13968 0 0.948912 0 0.75ZM0 5.75C0 5.55109 0.0642017 5.36032 0.178482 5.21967C0.292762 5.07902 0.447759 5 0.609375 5H12.3906C12.5522 5 12.7072 5.07902 12.8215 5.21967C12.9358 5.36032 13 5.55109 13 5.75C13 5.94891 12.9358 6.13968 12.8215 6.28033C12.7072 6.42098 12.5522 6.5 12.3906 6.5H0.609375C0.447759 6.5 0.292762 6.42098 0.178482 6.28033C0.0642017 6.13968 0 5.94891 0 5.75ZM0.609375 10C0.447759 10 0.292762 10.079 0.178482 10.2197C0.0642017 10.3603 0 10.5511 0 10.75C0 10.9489 0.0642017 11.1397 0.178482 11.2803C0.292762 11.421 0.447759 11.5 0.609375 11.5H12.3906C12.5522 11.5 12.7072 11.421 12.8215 11.2803C12.9358 11.1397 13 10.9489 13 10.75C13 10.5511 12.9358 10.3603 12.8215 10.2197C12.7072 10.079 12.5522 10 12.3906 10H0.609375Z" fill="white"/>
</svg>
